<svg width="14" height="20" viewBox="0 0 14 20" fill="none" xmlns="http://www.w3.org/2000/svg">
<path d="M3.75 4C3.75 2.20507 5.20507 0.75 7 0.75C8.79493 0.75 10.25 2.20507 10.25 4V10C10.25 11.7949 8.79493 13.25 7 13.25C5.20507 13.25 3.75 11.7949 3.75 10V4Z" stroke="black" stroke-width="1.5"/>
<path fill-rule="evenodd" clip-rule="evenodd" d="M0.75 8.22784C0.335786 8.22784 0 8.56363 0 8.97784V9.74684C0 13.4052 2.73668 16.4163 6.25 16.7952V18.4905H4C3.58579 18.4905 3.25 18.8263 3.25 19.2405C3.25 19.6547 3.58579 19.9905 4 19.9905H7H10C10.4142 19.9905 10.75 19.6547 10.75 19.2405C10.75 18.8263 10.4142 18.4905 10 18.4905H7.75V16.7952C11.2633 16.4163 14 13.4052 14 9.74684V8.97784C14 8.56363 13.6642 8.22784 13.25 8.22784C12.8358 8.22784 12.5 8.56363 12.5 8.97784V9.74684C12.5 12.8229 10.0376 15.3165 7 15.3165C3.96243 15.3165 1.5 12.8229 1.5 9.74684V8.97784C1.5 8.56363 1.16421 8.22784 0.75 8.22784Z" fill="black"/>
</svg>
